<svg width="182" height="182" viewBox="0 0 182 182" fill="#000" xmlns="http://www.w3.org/2000/svg">
<g clip-path="url(#clip0_59_23)">
<path d="M74.3167 41.9465C77.2614 41.9465 79.6486 39.5592 79.6486 36.6146C79.6486 33.1367 80.3677 32.1603 81.801 30.2141C85.8056 24.7759 88.2508 20.2309 88.2508 13.1696C88.2508 9.19058 86.9833 5.75752 85.8788 3.21169C84.7069 0.510172 81.566 -0.73075 78.8656 0.442279C76.164 1.61424 74.9242 4.75405 76.0958 7.45557C76.79 9.05586 77.587 11.1517 77.587 13.1693C77.587 17.6264 75.9486 20.1755 73.214 23.8904C71.3297 26.4494 68.9851 29.6336 68.9851 36.6142C68.9848 39.5592 71.372 41.9465 74.3167 41.9465Z" fill="white"/>
<path d="M99.0807 41.9464C102.025 41.9464 104.413 39.5592 104.413 36.6145C104.413 33.137 105.132 32.1602 106.565 30.214C110.576 24.7669 113.015 20.2166 113.015 13.1696C113.015 9.19087 111.747 5.75816 110.643 3.21198C109.472 0.510103 106.331 -0.729752 103.63 0.441854C100.928 1.61382 99.6886 4.75362 100.86 7.45514C101.554 9.05579 102.351 11.1516 102.351 13.1692C102.351 17.6228 100.717 20.1693 97.9785 23.8907C96.0941 26.4493 93.7495 29.6336 93.7495 36.6141C93.7488 39.5592 96.1361 41.9464 99.0807 41.9464Z" fill="white"/>
<path d="M123.088 148.606L117.735 129.742C114.463 131.191 111.091 132.369 107.651 133.271L112.831 151.525C108.452 154.54 105.573 159.585 105.573 165.292C105.573 174.504 113.068 181.999 122.28 181.999C131.492 181.999 138.987 174.504 138.987 165.292C138.987 156.351 131.926 149.029 123.088 148.606Z" fill="white"/>
<path d="M90.9997 124.769C111.678 124.769 129.913 113.255 140.505 95.8496H41.4937C52.0865 113.255 70.3214 124.769 90.9997 124.769Z" fill="white"/>
<path d="M159.249 51.5439H22.7509C19.8062 51.5439 17.4189 53.9312 17.4189 56.8759C17.4189 59.8205 19.8062 62.2078 22.7509 62.2078H31.8038C31.9684 70.3263 33.5396 78.0768 36.2631 85.1857H145.737C148.46 78.0768 150.031 70.3263 150.196 62.2078H159.249C162.193 62.2078 164.581 59.8205 164.581 56.8759C164.581 53.9312 162.193 51.5439 159.249 51.5439Z" fill="white"/>
<path d="M54.5328 175.429C53.7344 178.774 56.2707 182 59.7236 182C62.1347 182 64.3212 180.353 64.9056 177.904L75.4884 133.566C72.0262 132.724 68.6287 131.599 65.3272 130.206L54.5328 175.429Z" fill="white"/>
<path d="M85.6677 135.206V176.667C85.6677 179.612 88.055 181.999 90.9997 181.999C93.9443 181.999 96.3316 179.612 96.3316 176.667V135.206C92.6405 135.508 89.3663 135.509 85.6677 135.206Z" fill="white"/>
</g>
<defs>
<clipPath id="clip0_59_23">
<rect width="182" height="182" fill="white"/>
</clipPath>
</defs>
</svg>
